<svg version="1.1" id="Слой_1" xmlns="http://www.w3.org/2000/svg" x="0" y="0" viewBox="0 0 170 29.7" xml:space="preserve"><style>.st0{fill:#b4b4b4}</style><path class="st0" d="M15.7-.1c.5.1 1 .1 1.5.2 1.8.2 4.7 1.3 6 2.3-3.8 3.2-5.9 7.3-5.9 12.4 0 4.9 2 9.1 5.9 12.4-.6.3-1.1.6-1.7.9-1.4.7-3 1.2-4.7 1.4-4.2.5-8.1-.6-11.4-3.3C2.6 23.9.9 20.9.2 17.4c-.7-4.3.2-8.2 2.9-11.7C5.3 2.8 8.2 1 11.8.2c.6-.1 1.3-.2 2-.3.1 0 .2 0 .3-.1l1.6.1z" transform="translate(0 .114)"/><path class="st0" d="M34.1 0c.5.1.9.1 1.4.2 2.2.3 4.3 1.1 6.1 2.3C45 4.8 47.2 8 48 12.1c.8 4.6-.3 8.8-3.4 12.4-2.2 2.7-5.1 4.3-8.5 5-3.9.7-7.6 0-10.9-2.2 0 0-.1 0-.1-.1 3.8-3.2 5.8-7.3 5.8-12.3 0-5-2-9.1-5.9-12.4.8-.4 1.6-.9 2.4-1.2C28.9.6 30.6.2 32.3.1c.1 0 .2 0 .3-.1h1.5z"/><path class="st0" d="M24.1 3.2c7.8 6 7.5 17.7 0 23.3-7.2-5.5-8-16.9 0-23.3M60.3 10.6v1.2c.8-1.1 1.9-1.5 3.1-1.4 1.3.1 2.3.6 3 1.7.1-.2.2-.3.3-.4.7-.8 1.6-1.2 2.7-1.3.8-.1 1.7 0 2.5.4 1.1.5 1.7 1.4 1.9 2.6V20.5h-2.2V14.9c0-.4 0-.8-.1-1.1-.4-1.2-1.2-1.4-2.1-1.4-.7 0-1.4.3-1.9.9-.2.4-.4.9-.4 1.4V20.5h-2.2v-.4c0-1.8 0-3.6-.1-5.4 0-.4-.1-.9-.2-1.2-.4-.8-1-1-1.7-1.1-1 0-2 .3-2.4 1.4-.1.4-.2.9-.2 1.4V20.5h-2.2v-9.9h2.2z"/><path class="st0" d="M2.4 9.5c0 .2 0 .5.1.7.5 2.4 3 2.9 4.5 1.9 1.1-.7 1.5-1.9 1.3-3.2-.3-1.9-2-3-3.8-2.5-1.3.4-2.1 1.6-2.1 3.1m5.8-3.9v-5h2.2v13.8H8.2v-1c-.4.3-.9.7-1.3.9-2.3 1-5.3 0-6.3-2.8-.9-2.2-.6-4.3 1.1-5.9.8-.8 1.8-1.2 2.9-1.3 1.1-.1 2.1.1 3 .8.2.1.4.3.6.5" transform="translate(156 6.08)"/><path class="st0" d="M139 15.6v.8c0 2.4 3 2.8 4 1.7 2-.8 2-1.8 2-3.1-1-1.9-2-3-4-2.4-1 .4-2 1.5-2 3zm6 3.8c-1 .7-2 1.2-3 1.3-2 .3-4-1-5-3.3-1-1.9-1-3.7 1-5.3 1-1 2-1.6 3-1.7 1-.1 2 0 3 .5 0 .2 0 .5 1 .8v-1.1h2v9.9h-2v-1.1zM83.9 15.5c.1-1.6-1.1-3-2.7-3.1-1.1 0-2 .3-2.6 1.2-.6.8-.7 1.6-.6 2.5.3 1.8 1.7 2.8 3.6 2.5 1.6-.3 2.4-1.7 2.3-3.1m-.1-3.8v-.9c0-.1.1-.2.2-.2h1.9v9.9h-2.1v-1.1l-.1.1c-.9 1-2.1 1.3-3.4 1.2-2.2-.1-4-1.7-4.5-3.9-.3-1.6 0-3.2 1-4.5.8-1.2 2-1.8 3.4-1.9 1.2-.1 2.3.1 3.2.9.1.1.2.3.4.4M115 14.7c0-1.7-1-2.6-3-2.4-1 .2-2 1.3-2 2.4h5zm1 3c0 .5 1 1 1 1.4v.4c-2 1-3 1.3-5 1.2s-4-1.5-4-3.9c0-1.7 0-3.3 1-4.6 1-1.1 2-1.7 3-1.8s2 .1 3 .8c2 .8 2 1.9 2 3.2v2h-7c0 1.3 1 2.2 2 2.3 2 .2 3-.2 4-.8v-.2zM88 19.4c.4-.5.7-1.1 1.1-1.6 0 0 .1.1.2.1 1.3.9 2.7 1.1 4.2.7.3 0 .6-.2.9-.4.4-.4.3-1-.2-1.2-.6-.2-1.1-.4-1.7-.4-.8-.2-1.7-.3-2.5-.7-.9-.4-1.5-1.1-1.5-2.1-.2-1.2.3-2.1 1.3-2.8.7-.4 1.5-.6 2.3-.6 1.5-.1 2.8.1 4.1.7.1.1.3.2.4.3-.3.6-.6 1.2-.9 1.7-.6-.2-1.2-.5-1.7-.6-.8-.2-1.6-.3-2.4-.1-.4.2-.8.4-.9.9 0 .4.1.6.4.8.5.1 1 .2 1.6.3.8.2 1.6.2 2.4.6 1 .4 1.7 1.1 1.8 2.2.1 1.2-.4 2.1-1.4 2.8-.8.5-1.7.7-2.7.7-1.5.1-3-.1-4.3-.9-.1-.1-.3-.2-.4-.3l-.1-.1M100 12.6h-1.7v-2h1.7v-3h2v3h4v2h-4v.3c0 1.3 0 2.7 1 4v.8c0 .7 0 1.1 1 .9 1-.1 1-.3 2-.4v1.9c-1 .5-2 .7-3 .6 0 0-1-.2-2-.7 0-.5-1-1.2-1-1.9v-5.5M134 17.8c1 .6 1 1.1 1 1.7 0 .4 0 .7-1 .9-2 .6-4 .5-6-.8-1-.7-1-1.6-1-2.7-1-1.6 0-3 0-4.4 1-1.2 2-1.8 4-2.1 1-.2 2-.1 3 .4 1 .2 1 .4 1 .7 0 .6 0 1.2-1 1.8 0-.2 0-.5-1-.6-1-.4-2-.4-3 .3-1 .5-1 1.2-1 2 0 .9 0 1.9 1 2.7 0 .6 1 .9 1 1 1 0 2-.2 3-.8v-.1M120 20.5v-9.9h2v1c0-.5 1-1 2-1.2 0-.1 1 0 2 .2 0 .7 0 1.4-1 2 0-.1-1-.1-1-.2-1 0-2 .6-2 1.6v6.5h-2zM150 10.6h2v1.1c1-1.5 2-1.6 4-1.1 0 .7-1 1.4-1 2.1 0-.3-1-.3-2-.2 0 .1-1 .7-1 1.6v6.4h-2v-9.9z"/></svg>