<svg version="1.1" id="Слой_1" xmlns="http://www.w3.org/2000/svg" x="0" y="0" viewBox="0 0 90 30.2" xml:space="preserve"><style>.st0{fill:#b4b4b4}</style><path class="st0" d="M82.8 22.4c-2.2.2-4.4.4-6.7.2-3.2-.4-4.7-2-4.8-5.2v-4.7c.1-2.9 1.6-4.6 4.5-5 2.1-.3 4.1-.1 6.1.1.5 0 .7.2.6.7-.1.8-.2 1.6-.2 2.4 0 .6-.1.7-.7.6-1.3-.2-2.6-.3-3.9-.1-1.3.1-1.8.6-1.9 1.8-.1 1.3-.1 2.6 0 4 .1 1.2.7 1.7 1.9 1.8 1.4.1 2.7.1 4.1-.1.5-.1.7.1.7.6.1.8 0 1.7.3 2.5v.4zM.6 27.4V2.8c.1 0 .2 0 .3.1.2.4.1.9.1 1.3v22c0 .3 0 .7-.2 1.1 0 .1-.1.1-.2.1M50.4 15.2c-.5.6-.6 1.1-.8 1.6-.4.7-.7 1.5-1 2.2-.9 2.1-1 2.2-3.3 1.9-.4 0-.5-.3-.7-.6-.6-1.4-1.3-2.8-2-4.2-.1-.3-.1-.6-.5-.7l-.3 4.8c-.1.7.2 1.7-.3 2.1-.4.4-1.4.1-2.1.1-2 0-1.9 0-1.8-2 .3-3.9.5-7.9.7-11.8.1-.8.3-.9 1-.9.8.1 1.7 0 2.6 0 .5 0 .7.1.9.6 1.1 2.6 2.3 5.1 3.4 7.7.4 0 .4-.4.5-.6 1-2.3 2-4.7 3-7 .2-.5.5-.7 1-.7 1 .1 1.9 0 2.9 0 .4 0 .6.1.6.6.3 4.5.6 8.9.9 13.4.1.6-.1.8-.7.7h-2.9c-.5.1-.7-.2-.7-.7-.1-2.1-.3-4.2-.4-6.5M63.2 7.8h6.1c.5 0 .7.1.6.7-.1.8-.1 1.7-.2 2.5 0 .4-.1.6-.5.6-1-.1-2 0-2.9-.1-.7 0-.8.2-.8.8 0 3.1-.1 6.2 0 9.3 0 .8-.2 1-1 1-.9-.1-1.8-.1-2.7 0-.6 0-.8-.2-.8-.8.1-3.2 0-6.3.1-9.5 0-.6-.2-.8-.9-.8-1 .1-2 0-3 0-.3.1-.5 0-.5-.4 0-.9-.1-1.8-.2-2.7 0-.5.2-.5.6-.5 2-.1 4.1-.1 6.1-.1"/><path d="M27.8.5H3C1.8.8 1 1.6.7 2.8v24.6c.3 1.2 1 2 2.2 2.3h25c1.4-.4 2.2-1.4 2.2-2.9V3.5c0-1.5-.7-2.5-2.3-3" fill="none" stroke="#b4b4b4"/><path id="Path" class="st0" d="M20.3 24.5c-4.8 3.7-11.9.8-12.7-5.2-.7-5.2.9-9.6 4.4-13.4 2.2-2.3 4.5-2.3 6.7 0 2.5 2.5 3.8 5.5 4.5 8.9.1.8.2 1.6.2 2.4-.1 2.9-.8 5.4-3.1 7.3"/></svg>