<svg viewBox="0 0 150 34" xmlns="http://www.w3.org/2000/svg"><g fill="none" fill-rule="evenodd"><path d="M13.131 24.081l2.137-2.948c1.604 1.377 4.008 2.262 6.178 2.262 1.67 0 2.838-.558 2.838-1.705 0-1.212-.935-1.67-3.372-2.095-3.372-.59-6.98-1.376-6.98-5.472 0-3.506 2.94-5.537 6.913-5.537 3.639 0 5.843.918 7.813 2.458l-2.103 2.98c-1.803-1.211-3.573-1.9-5.243-1.9-1.536 0-2.404.59-2.404 1.541 0 1.048.968 1.474 3.172 1.867 3.506.59 7.213 1.376 7.213 5.34 0 4.225-3.74 5.896-7.847 5.896-3.906 0-6.512-1.178-8.315-2.687m29.989-6.435c0-2.901-1.033-4.727-3.432-4.727-1.366 0-2.6.816-3.499 1.695v6.42c1.166 1.074 2.133 1.597 3.566 1.597 2.233 0 3.366-1.825 3.366-4.985zm-1.465-9.06c4.032 0 6.83 3.031 6.83 9.025 0 5.998-2.832 8.96-6.898 8.96-2.398 0-4.065-.846-5.398-2.31v8.567h-5.386v-19.19c0-2.086-.133-3.357-.5-4.237l5.253-.815c.267.62.5 2.216.5 3.194 1.167-1.564 2.965-3.194 5.599-3.194zm21.155 9.14c0-2.915-1.034-5.274-3.703-5.274-2.568 0-3.736 2.13-3.736 5.274 0 2.917 1.001 5.34 3.736 5.34 2.537 0 3.704-2.162 3.704-5.34zM50 17.695c0-6.848 4.77-9.11 9.107-9.11 4.304 0 9.075 2.262 9.075 9.11 0 6.78-4.77 9.073-9.075 9.073-4.303 0-9.107-2.293-9.107-9.073zm25.945-5.729c.96-1.463 2.708-3.38 5.712-3.38.232 0 .666.065.666.065l-.395 4.582c-.04-.033-.898-.096-1.229-.096-2.112 0-3.697 1.104-4.687 2.371v10.755h-5.315v-12.64c0-2.08-.132-3.347-.495-4.224l5.183-.813c.264.619.495 2.405.495 3.38h.065m17.063 10.152c.897 0 1.961-.192 2.426-.32l1.03 3.727c-.929.32-2.359.738-4.985.738-5.252 0-5.352-2.795-5.352-6.009v-7.21h-2.794l.325-4.46h2.469v-4.59l5.318-.964v5.553H96v4.46h-4.555v6.73c0 1.51.366 2.345 1.563 2.345m3.962 1.963l2.137-2.948c1.602 1.377 4.006 2.262 6.176 2.262 1.67 0 2.839-.558 2.839-1.705 0-1.212-.934-1.67-3.372-2.095-3.374-.59-6.979-1.376-6.979-5.472 0-3.506 2.938-5.537 6.912-5.537 3.64 0 5.844.918 7.813 2.458l-2.103 2.98c-1.803-1.211-3.573-1.9-5.242-1.9-1.536 0-2.405.59-2.405 1.541 0 1.048.969 1.474 3.173 1.867 3.506.59 7.212 1.376 7.212 5.34 0 4.225-3.74 5.896-7.848 5.896-3.907 0-6.51-1.178-8.313-2.687m28.471-12.115c.958-1.463 2.707-3.38 5.71-3.38.232 0 .667.065.667.065l-.396 4.582c-.039-.033-.897-.096-1.227-.096-2.113 0-3.698 1.104-4.689 2.371v10.755h-5.313v-12.64c0-2.08-.133-3.347-.496-4.224l5.183-.813c.264.619.495 2.405.495 3.38h.066m18.714 11.588c-1.064 1.344-3.056 3.214-6.145 3.214-3.022 0-5.182-1.476-5.182-5.085V8.586h5.348V20.14c0 1.574.598 2.426 2.091 2.426 1.429 0 2.659-.751 3.854-1.77V8.586h5.347v12.736c0 2.099.133 3.706.532 4.594l-5.347.852c-.266-.688-.432-2.328-.432-3.214h-.066" fill="#FFF"/><path d="M3 6C1.348 6 0 4.618 0 2.966 0 1.315 1.348 0 3 0c1.65 0 3 1.315 3 2.966C6 4.618 4.651 6 3 6" fill="#6D6D6D"/><path d="M3 13c-1.652 0-3-1.382-3-3.034S1.348 7 3 7c1.65 0 3 1.314 3 2.966C6 11.618 4.651 13 3 13" fill="#FFF"/><path d="M3 20c-1.652 0-3-1.382-3-3.034S1.348 14 3 14c1.651 0 3 1.314 3 2.966C6 18.618 4.651 20 3 20" fill="#00A0F0"/><path d="M3 27c-1.652 0-3-1.382-3-3.034C0 22.315 1.348 21 3 21c1.651 0 3 1.315 3 2.966C6 25.618 4.651 27 3 27" fill="#FF003C"/><path d="M116.162 26.768c-1.669 0-3.03-1.396-3.03-3.065 0-1.668 1.361-2.996 3.03-2.996 1.667 0 3.03 1.328 3.03 2.996 0 1.669-1.363 3.065-3.03 3.065" fill="#FFF"/><path d="M3 34c-1.652 0-3-1.382-3-3.034C0 29.315 1.348 28 3 28c1.651 0 3 1.315 3 2.966C6 32.618 4.651 34 3 34" fill="#6D6D6D"/></g></svg>