<svg version="1.1" id="Слой_1" xmlns="http://www.w3.org/2000/svg" x="0" y="0" viewBox="0 0 68 48" xml:space="preserve"><style>.st1{fill:#217fc1}</style><path d="M9.4 47c-2.5 0-4.8-1-6.3-2.8-1.7-2-2.4-5-1.9-8l4-24C6.1 6 11.6 1 17.4 1h41.2c2.5 0 4.8 1 6.3 2.8 1.7 2 2.4 5 1.9 8l-4 24C61.9 42 56.4 47 50.6 47H9.4z" fill="#fff"/><path class="st1" d="M58.6 2c2.2 0 4.2.9 5.6 2.5 1.5 1.8 2.2 4.4 1.7 7.2l-4 24C61 41.3 55.8 46 50.6 46H9.4c-2.2 0-4.2-.9-5.6-2.5-1.5-1.8-2.2-4.4-1.7-7.2l4-24C7 6.7 12.2 2 17.4 2h41.2m0-2H17.4C11.2 0 5.2 5.4 4.1 12l-4 24C-1 42.6 3.2 48 9.4 48h41.2c6.2 0 12.1-5.4 13.2-12l4-24c1.1-6.6-3-12-9.2-12z"/><text transform="translate(24.853 33.5)" class="st1" font-size="28" font-family="Roboto">Ф</text></svg>