<svg version="1.1" id="Capa_1" xmlns="http://www.w3.org/2000/svg" x="0" y="0" viewBox="0 0 341.3 512" xml:space="preserve"><style>.st0{fill:#217fc1}</style><path class="st0" d="M315.7 34.1H213.3l15.4-20.5c2.8-3.8 2.1-9.1-1.7-11.9-3.8-2.8-9.1-2.1-11.9 1.7l-23 30.7h-41.7L135.6 4.7c-2.1-4.2-7.2-5.9-11.5-3.8-4.2 2.1-5.9 7.2-3.8 11.5l10.9 21.8H25.6C11.5 34.1 0 45.6 0 59.7v426.7C0 500.5 11.5 512 25.6 512h290.1c14.1 0 25.6-11.5 25.6-25.6V59.7c0-14.1-11.5-25.6-25.6-25.6zM25.6 51.2h114.2l8.5 17.1c-7.2 6.3-11.8 15.4-11.8 25.6 0 18.8 15.3 34.1 34.1 34.1s34.1-15.3 34.1-34.1-15.3-34.1-34.1-34.1c-2.4 0-4.8.3-7.1.8l-4.7-9.3h156.9c4.7 0 8.5 3.8 8.5 8.5v281.6h-69.5c-2.6-10.1-9.3-18.7-18.9-23.5l-31-15.9v-3.3c13.9-7.6 23.7-20.1 29.1-37.2 8.3-4.4 13.6-12.9 13.6-22.5v-8.5c0-7.9-3.7-15.2-9.8-20-5.3-32.3-27.8-48.6-67-48.6-1.9 0-3.7.1-5.4.2-7.4.6-18.2 0-27.5-6.3-3.5-2.4-6.1-4.6-7.8-6.8-2.9-3.7-7.7-4.9-12-3.2-4.3 1.8-6.8 6-6.3 10.6.4 3.2.9 6.9 1.7 11 1.6 8.3 1.6 8.3-.7 13.3-.9 1.9-1.9 4.2-3.2 7.3-2.8 6.9-4.8 14.5-6 22.6-6.1 4.8-9.7 12.1-9.7 19.9v8.5c0 9.6 5.3 18.1 13.6 22.5 5.5 17.2 15.2 29.7 29.1 37.2v3.2l-32.2 15.9c-9.2 5-15.6 13.6-18 23.6H17.1V59.7c0-4.7 3.8-8.5 8.5-8.5zm130.8 33.3l6.6 13.2a8.49 8.49 0 0 0 11.4 3.8c4.2-2.1 5.9-7.2 3.8-11.5l-6.6-13.1c8.9.6 16 7.9 16 17 0 9.4-7.7 17.1-17.1 17.1-9.4 0-17.1-7.7-17.1-17.1.2-3.5 1.2-6.7 3-9.4zm-11.2 232.2c5.1-2.5 8.4-7.8 8.4-13.6v-15.4l-5.2-2.2c-12.9-5.6-21.4-16.2-25.7-32.5l-1.2-4.5-4.5-1.5c-3.6-1.1-6.1-4.4-6.1-8.1v-8.5c0-3.1 1.8-6 4.6-7.5l4-2.1.5-4.5c.8-8 2.6-15.4 5.3-21.9 1.1-2.8 2.1-4.8 2.9-6.5 2.9-6.2 3.9-9.4 3.2-16 10 5.7 22.1 8.2 35.2 7.2 1.3-.1 2.7-.2 4.1-.2 31.9 0 47.5 11.6 50.6 37.5l.5 4.5 4 2.1c2.9 1.5 4.6 4.4 4.6 7.5v8.5c0 3.7-2.5 7-6.1 8.1l-4.5 1.4-1.2 4.5c-4.4 16.3-12.8 27-25.7 32.5l-5.2 2.2v15.5c0 5.7 3.2 10.9 8.2 13.4l32.2 16.5c3.7 1.8 6.6 4.8 8.4 8.3H104.3c1.7-3.6 4.5-6.6 7.9-8.4l33-16.3zm170.5 178.2H25.6c-4.7 0-8.5-3.8-8.5-8.5v-128H324.3v128c0 4.7-3.9 8.5-8.6 8.5z"/><path class="st0" d="M247.5 418.1H93.9c-4.7 0-8.5 3.8-8.5 8.5s3.8 8.5 8.5 8.5h153.6c4.7 0 8.5-3.8 8.5-8.5s-3.8-8.5-8.5-8.5zM128 401.1h85.3c4.7 0 8.5-3.8 8.5-8.5s-3.8-8.5-8.5-8.5H128c-4.7 0-8.5 3.8-8.5 8.5s3.8 8.5 8.5 8.5zM102.4 452.3h-8.5c-4.7 0-8.5 3.8-8.5 8.5s3.8 8.5 8.5 8.5h8.5c4.7 0 8.5-3.8 8.5-8.5s-3.8-8.5-8.5-8.5zM153.6 452.3h-17.1c-4.7 0-8.5 3.8-8.5 8.5s3.8 8.5 8.5 8.5h17.1c4.7 0 8.5-3.8 8.5-8.5s-3.8-8.5-8.5-8.5zM196.3 452.3h-8.5c-4.7 0-8.5 3.8-8.5 8.5s3.8 8.5 8.5 8.5h8.5c4.7 0 8.5-3.8 8.5-8.5s-3.8-8.5-8.5-8.5zM247.5 452.3h-17.1c-4.7 0-8.5 3.8-8.5 8.5s3.8 8.5 8.5 8.5h17.1c4.7 0 8.5-3.8 8.5-8.5s-3.8-8.5-8.5-8.5z"/></svg>