<svg version="1.1" id="Слой_1" xmlns="http://www.w3.org/2000/svg" x="0" y="0" viewBox="0 0 80 28.9" xml:space="preserve"><style>.st0{fill:#b4b4b4}</style><path class="st0" d="M48.2 3.5c2.7-.4 5.4-.8 8.2-1.2v5.9c-2.7.3-5.5.6-8.2.9V3.5zM41.5 28.9c-.1-.1-.1-.3-.1-.5V5c0-.4.1-.5.5-.6 1.6-.2 3.2-.4 4.8-.7h.4V28.5c0 .2 0 .3-.1.4h-5.5zM58.3 28.9v-5.5c-.1-.4.1-.4.4-.4 4.7-.2 9.5-.3 14.2-.5 1.6 0 3.1-.1 4.7-.1v6.5H58.3zM26.9 28.9v-22c0-.2 0-.4.2-.4l4.5-.6h.2V28.9h-4.9zM13.8 28.9V8.4c1.4-.2 2.9-.4 4.3-.6v21.1h-4.3zM4.7 28.9v-.4-13.4c0-.4.1-.5.5-.5 1.2-.1 2.4-.3 3.6-.4v14.3c0 .1 0 .3-.1.4h-4zM1 10.2c.8-.1 1.7-.3 2.5-.4 2.8-.4 5.5-.7 8.3-1.1.1 0 .3 0 .5-.1v4.5l-2.4.3-8.4.9H1v-4.1zM48.2 28.9v-5.6c2.7-.1 5.4-.2 8.2-.3v5.9h-8.2zM32.8 28.9c0-.1-.1-.2-.1-.3V24c0-.1 0-.1.1-.2 2.3-.1 4.7-.2 7.1-.3v5.4h-7.1zM19 28.9v-.3c-.1-1.4-.1-2.7 0-4.1v-.3c2-.1 4.1-.1 6.2-.2V28.9H19zM59.6 21.8c.3-.2.6-.5.8-.8 2.6-2.5 5.1-4.9 7.6-7.4 1.1-1.1 1.9-2.3 2.3-3.8.1-.5.2-1 .1-1.5-.1-1.1-1-1.9-2.2-1.9h-.5V.1c4.3-.8 8.7 1.4 9.5 6.1.3 1.9-.1 3.8-.7 5.5-.7 2-1.8 3.6-3.2 5.2-1.3 1.5-2.7 3-4.1 4.5-.2.2-.4.2-.6.2-2 .1-4 .2-6.1.2-.9.1-1.9 0-2.9 0"/><path class="st0" d="M64.5 11.8c-2 .2-4 .4-5.9.5 0-.8-.1-1.6 0-2.5.1-2.1.6-4.1 1.9-5.8C62 1.9 64.1.8 66.6.3v6c0 .1-.1.4-.2.4-1.3.6-1.7 1.6-1.9 2.9v2.2M48.2 13.4c1.8-.2 3.6-.3 5.4-.5v5.9l-5.4.3v-5.7zM25.2 6.8v4.7c0 .1-.1.2-.2.2-2 .2-3.9.4-5.9.6 0 .1-.1 0-.1 0V12c-.1-1.3 0-2.7-.1-4 0-.2 0-.4.3-.4 1.9-.3 3.8-.5 5.7-.8h.3M23 20.5c-1.3.1-2.7.1-4 .2v-4.8c1.3-.1 2.6-.2 4-.4v5z"/></svg>