<svg version="1.1" id="Слой_1" xmlns="http://www.w3.org/2000/svg" x="0" y="0" viewBox="0 0 95 29" xml:space="preserve"><style>.st0{fill:#b4b4b4}</style><path class="st0" d="M17.9 18.1c-.8-3.6-1.5-7.2-2.3-10.8 0-.1-.1-.1-.1-.1L11.6 18l6.3.1zM.2 28.2c.6-1.4 1.1-2.7 1.7-4.1C5.1 16.6 8.2 9 11.4 1.5c.5-1.3 1.6-2 3-2.1h6c.3 0 .4.1.5.4C22 5 23.1 10.3 24.2 15.5c.8 4.1 1.6 8.2 2.5 12.3.1.3 0 .5-.4.5h-5.9c-.3 0-.4-.1-.5-.5-.2-1.1-.5-2.3-.7-3.4-.1-.2-.2-.4-.5-.4-2.9.1-5.9.1-8.8 0-.3 0-.5.2-.6.4-.4 1.2-.8 2.4-1.3 3.6-.1.3-.2.4-.5.4h-7c-.1 0-.2 0-.3-.2z" transform="translate(65.5 .597)"/><path class="st0" d="M0 .2c.1-.3.1-.5.2-.8h12.5c1.9 0 3.2 1.1 3.6 3.1 1 5.4 2 10.9 3.1 16.3 0 0 0 .1.1.2.1-.2.2-.3.2-.5 2.5-6.2 4.9-12.4 7.4-18.6.1-.3.2-.4.6-.4H35c-.1.2-.1.3-.2.5-3.9 9.3-7.8 18.6-11.7 28-.1.3-.2.4-.6.4h-7c-.3 0-.5-.1-.5-.4-2-7.6-4-15.2-5.9-22.8-.3-1.2-.9-2-1.9-2.6C5.2 1.6 3.1 1 .9.5.6.4.3.4 0 .2" transform="translate(0 .597)"/><path class="st0" d="M.2 27.5c.5-2 .9-4.1 1.3-6.1.7.3 1.3.6 2 .9 2.3.8 4.7 1.2 7.2.7.7-.1 1.4-.4 2-.9 1.2-.7 1.3-2.1.4-3.1-.6-.6-1.2-1-1.9-1.4-1-.6-2.1-1.1-3-1.6-.7-.4-1.4-.9-2.1-1.4-2.8-2.3-3.6-5.4-2-8.7 1.2-2.5 3.3-4 5.8-4.9 2.1-.8 4.4-1 6.7-1 1.9.1 3.8.4 5.7 1 .1 0 .2.1.3.1.1 0 .1.1.2.1-.5 1.9-.9 3.8-1.3 5.8-.5-.2-.9-.3-1.4-.5-2.1-.7-4.4-1-6.6-.6-.8.2-1.6.5-2.1 1.2-.6.7-.6 1.6 0 2.3.4.4.9.8 1.5 1.1 1 .6 2 1.1 3 1.6.8.5 1.6.9 2.3 1.5 3.1 2.1 3.9 5.1 2.8 8.5-1 2.8-3.1 4.5-5.9 5.6-2 .9-4.1 1.2-6.3 1.2-2.6 0-5.2-.3-7.7-1.1-.3 0-.6-.2-.9-.3" transform="translate(44.5 .038)"/><path class="st0" d="M45.7.1c-.4 2-.8 3.9-1.2 5.8-1.6 7.3-3.2 14.7-4.7 22-.3 1.1-.3 1.1-1.4 1.1h-6.3c.2-.6.3-1.2.4-1.8 1.8-8.6 3.7-17.3 5.5-25.9.3-1.3.3-1.3 1.5-1.3h5.6l.6.1z"/></svg>